<mxfile host="app.diagrams.net" modified="2024-04-05T19:33:37.071Z" agent="Mozilla/5.0 (Windows NT 10.0; Win64; x64; rv:124.0) Gecko/20100101 Firefox/124.0" etag="sEd2C2HH4rdStHa3NCVj" version="24.0.4" type="github">
  <diagram id="R2lEEEUBdFMjLlhIrx00" name="Page-1">
    <mxGraphModel dx="1890" dy="1058" grid="1" gridSize="10" guides="1" tooltips="1" connect="1" arrows="1" fold="1" page="1" pageScale="1" pageWidth="850" pageHeight="1100" math="0" shadow="0" extFonts="Permanent Marker^https://fonts.googleapis.com/css?family=Permanent+Marker">
      <root>
        <mxCell id="0" />
        <mxCell id="1" parent="0" />
        <mxCell id="mXbjp-5B4UFYUWA8ZSkY-1" value="ATTENDEE-EVENT" style="rounded=1;arcSize=10;whiteSpace=wrap;html=1;align=center;" vertex="1" parent="1">
          <mxGeometry x="300" y="330" width="100" height="40" as="geometry" />
        </mxCell>
        <mxCell id="mXbjp-5B4UFYUWA8ZSkY-2" value="ITEM-EVENT" style="rounded=1;arcSize=10;whiteSpace=wrap;html=1;align=center;" vertex="1" parent="1">
          <mxGeometry x="60" y="950" width="100" height="40" as="geometry" />
        </mxCell>
        <mxCell id="mXbjp-5B4UFYUWA8ZSkY-3" value="TABLE-EVENT" style="rounded=1;arcSize=10;whiteSpace=wrap;html=1;align=center;" vertex="1" parent="1">
          <mxGeometry x="630" y="580" width="100" height="40" as="geometry" />
        </mxCell>
        <mxCell id="mXbjp-5B4UFYUWA8ZSkY-4" value="VOLUNTEER-EVENT" style="rounded=1;arcSize=10;whiteSpace=wrap;html=1;align=center;" vertex="1" parent="1">
          <mxGeometry x="290" y="130" width="100" height="40" as="geometry" />
        </mxCell>
        <mxCell id="mXbjp-5B4UFYUWA8ZSkY-5" value="DONOR-EVENT" style="rounded=1;arcSize=10;whiteSpace=wrap;html=1;align=center;" vertex="1" parent="1">
          <mxGeometry x="560" y="880" width="100" height="40" as="geometry" />
        </mxCell>
        <mxCell id="mXbjp-5B4UFYUWA8ZSkY-6" value="VENDOR-EVENT" style="rounded=1;arcSize=10;whiteSpace=wrap;html=1;align=center;" vertex="1" parent="1">
          <mxGeometry x="1120" y="890" width="100" height="40" as="geometry" />
        </mxCell>
        <mxCell id="mXbjp-5B4UFYUWA8ZSkY-7" value="ORGANIZATION-EVENT" style="rounded=1;arcSize=10;whiteSpace=wrap;html=1;align=center;" vertex="1" parent="1">
          <mxGeometry x="730" y="270" width="100" height="40" as="geometry" />
        </mxCell>
        <mxCell id="mXbjp-5B4UFYUWA8ZSkY-8" value="COSTS-EVENT" style="rounded=1;arcSize=10;whiteSpace=wrap;html=1;align=center;" vertex="1" parent="1">
          <mxGeometry x="900" y="740" width="100" height="40" as="geometry" />
        </mxCell>
        <mxCell id="mXbjp-5B4UFYUWA8ZSkY-10" value="PURCHASE-EVENT" style="shape=ext;margin=3;double=1;whiteSpace=wrap;html=1;align=center;" vertex="1" parent="1">
          <mxGeometry x="60" y="520" width="100" height="40" as="geometry" />
        </mxCell>
        <mxCell id="mXbjp-5B4UFYUWA8ZSkY-12" value="TICKET-EVENT" style="shape=ext;margin=3;double=1;whiteSpace=wrap;html=1;align=center;" vertex="1" parent="1">
          <mxGeometry x="-80" y="690" width="100" height="40" as="geometry" />
        </mxCell>
        <mxCell id="mXbjp-5B4UFYUWA8ZSkY-13" value="BID-EVENT" style="shape=ext;margin=3;double=1;whiteSpace=wrap;html=1;align=center;" vertex="1" parent="1">
          <mxGeometry x="220" y="690" width="100" height="40" as="geometry" />
        </mxCell>
        <mxCell id="mXbjp-5B4UFYUWA8ZSkY-14" value="SITS AT" style="shape=rhombus;perimeter=rhombusPerimeter;whiteSpace=wrap;html=1;align=center;" vertex="1" parent="1">
          <mxGeometry x="470" y="420" width="120" height="60" as="geometry" />
        </mxCell>
        <mxCell id="mXbjp-5B4UFYUWA8ZSkY-15" value="BELONGS TO" style="shape=rhombus;perimeter=rhombusPerimeter;whiteSpace=wrap;html=1;align=center;" vertex="1" parent="1">
          <mxGeometry x="470" y="260" width="120" height="60" as="geometry" />
        </mxCell>
        <mxCell id="mXbjp-5B4UFYUWA8ZSkY-17" value="COSTS" style="shape=rhombus;perimeter=rhombusPerimeter;whiteSpace=wrap;html=1;align=center;" vertex="1" parent="1">
          <mxGeometry x="1010" y="800" width="120" height="60" as="geometry" />
        </mxCell>
        <mxCell id="mXbjp-5B4UFYUWA8ZSkY-18" value="DONATES" style="shape=rhombus;perimeter=rhombusPerimeter;whiteSpace=wrap;html=1;align=center;" vertex="1" parent="1">
          <mxGeometry x="330" y="1000" width="120" height="60" as="geometry" />
        </mxCell>
        <mxCell id="mXbjp-5B4UFYUWA8ZSkY-19" value="PROVIDES" style="shape=rhombus;perimeter=rhombusPerimeter;whiteSpace=wrap;html=1;align=center;" vertex="1" parent="1">
          <mxGeometry x="870" y="930" width="120" height="60" as="geometry" />
        </mxCell>
        <mxCell id="mXbjp-5B4UFYUWA8ZSkY-20" value="PAYS FOR" style="shape=rhombus;perimeter=rhombusPerimeter;whiteSpace=wrap;html=1;align=center;" vertex="1" parent="1">
          <mxGeometry x="700" y="420" width="120" height="60" as="geometry" />
        </mxCell>
        <mxCell id="mXbjp-5B4UFYUWA8ZSkY-21" value="MAKES" style="shape=rhombus;double=1;perimeter=rhombusPerimeter;whiteSpace=wrap;html=1;align=center;" vertex="1" parent="1">
          <mxGeometry x="130" y="390" width="120" height="60" as="geometry" />
        </mxCell>
        <mxCell id="mXbjp-5B4UFYUWA8ZSkY-22" value="WINS" style="shape=rhombus;perimeter=rhombusPerimeter;whiteSpace=wrap;html=1;align=center;" vertex="1" parent="1">
          <mxGeometry x="60" y="790" width="120" height="60" as="geometry" />
        </mxCell>
      </root>
    </mxGraphModel>
  </diagram>
</mxfile>
